<svg width="22" height="22" viewBox="0 0 22 22" fill="none" xmlns="http://www.w3.org/2000/svg">
<g clip-path="url(#clip0_136_1843)">
<path d="M16.5917 7.65421L13.2917 10.175C13.0625 10.3584 12.7417 10.3584 12.5125 10.175L10.0375 8.34171C9.30416 7.79171 8.24999 7.97504 7.74583 8.75421L4.62916 13.6584C4.30833 14.1167 4.90416 14.6667 5.36249 14.3459L8.70833 11.825C8.9375 11.6417 9.25833 11.6417 9.4875 11.825L11.9625 13.6584C12.6958 14.2084 13.75 14.025 14.2542 13.2459L17.3708 8.34171C17.6458 7.83754 17.05 7.33337 16.5917 7.65421ZM11 0.458374C5.04166 0.458374 0.458328 4.81254 0.458328 10.6792C0.458328 13.75 1.69583 16.4084 3.75833 18.2417C3.94166 18.3792 4.03333 18.6084 4.03333 18.8375L4.12499 20.7167C4.12499 21.175 4.5375 21.5417 4.95 21.5417C5.04166 21.5417 5.17916 21.5417 5.27083 21.45L7.37916 20.5334C7.47083 20.4875 7.60833 20.4417 7.69999 20.4417C7.79166 20.4417 7.83749 20.4417 7.92916 20.4875C8.89166 20.7625 9.89999 20.9 11 20.9C16.9583 20.9 21.5417 16.5459 21.5417 10.6792C21.5417 4.81254 16.9583 0.458374 11 0.458374ZM11 19.525C10.0833 19.525 9.16666 19.3875 8.29583 19.1584C8.1125 19.1125 7.92916 19.0667 7.69999 19.0667C7.37916 19.0667 7.10416 19.1125 6.78333 19.25L5.40833 19.8459V18.7917C5.40833 18.1959 5.13333 17.6459 4.67499 17.2334C2.84166 15.5834 1.83333 13.2459 1.83333 10.6792C1.83333 5.63754 5.775 1.83337 11 1.83337C16.225 1.83337 20.1667 5.63754 20.1667 10.6792C20.1667 15.7209 16.225 19.525 11 19.525Z" fill="#262626"/>
</g>
<defs>
<clipPath id="clip0_136_1843">
<rect width="22" height="22" fill="white"/>
</clipPath>
</defs>
</svg>
